# xmcd
#
# Track frame offsets: 
#        150
#        19185
#        35376
#        59350
#        83237
#        107889
#        129261
#        145866
#        168502
#        186167
#        208459
#        222151
#        240277
#        256599
#        275860
#        292590
#        312038
#        333372
#
# Disc length: 4787 seconds
#
# Revision: 2
# Processed by: cddbd v1.5.2PL0 Copyright (c) Steve Scherf et al.
# Submitted via: ExactAudioCopy v1.1
#
DISCID=0212b112
DTITLE=Various Artist - Akella Presents - vol.98 - Rockin' Blues  CD2
DYEAR=2016
DGENRE=Blues
TTITLE0=Calvin Russell - Drive By
TTITLE1=The Blues Mystery - Don't Get Close To Me Today
TTITLE2=GT's Boos Band - Lonely Roads
TTITLE3=Grinderswitch - Who's Been Cheatin' On Who
TTITLE4=Van Wilks - On The Edge
TTITLE5=George Thorogood - As the Years Go Passing By
TTITLE6=John Lawton - Payin' My Dues To The Blues
TTITLE7=Dan Doiron - Am I Blue Enough For You Yet
TTITLE8=Timo Gross - The Desert
TTITLE9=Keith Thompson's Strange Brew - Independence
TTITLE10=Blue On Black - Means To An End
TTITLE11=Guy Forsyth - Mad
TTITLE12=Innes Sibun - I'll Take Care Of You
TTITLE13=Rick Gibson Band - Crossroad Blues
TTITLE14=Darcy Perry - Reaper Man
TTITLE15=Pat Boyack and The Prowlers - Cleaning Out My Closet
TTITLE16=JP Stingray - The Day You Left
TTITLE17=Too Slim And The Taildraggers - Double Trouble
EXTD=
EXTT0=
EXTT1=
EXTT2=
EXTT3=
EXTT4=
EXTT5=
EXTT6=
EXTT7=
EXTT8=
EXTT9=
EXTT10=
EXTT11=
EXTT12=
EXTT13=
EXTT14=
EXTT15=
EXTT16=
EXTT17=
PLAYORDER=
